<svg width="100" height="100" viewBox="0 0 100 100" fill="none" xmlns="http://www.w3.org/2000/svg">
<rect width="100" height="100" fill="white"/>
<circle cx="50" cy="50" r="50" fill="#0032A0"/>
<path d="M28.4849 41.9052V59H25.363L17.9258 48.2406H17.8006V59H14.1863V41.9052H17.3582L24.737 52.6562H24.8873V41.9052H28.4849ZM35.5554 41.9052V59H31.9411V41.9052H35.5554ZM42.0876 41.9052L46.2194 54.8932H46.378L50.5181 41.9052H54.5247L48.6317 59H43.974L38.0726 41.9052H42.0876ZM57.0524 59V41.9052H68.5714V44.8851H60.6667V48.9585H67.9787V51.9384H60.6667V56.0201H68.6048V59H57.0524ZM74.8615 59H70.9884L76.8898 41.9052H81.5475L87.4405 59H83.5675L79.2854 45.8116H79.1519L74.8615 59ZM74.6194 52.2806H83.7678V55.1019H74.6194V52.2806Z" fill="white"/>
<path d="M5.72827 79.6364V80.3182H3.34474V79.6364H5.72827ZM3.98395 78.5909H4.83338V82.7188C4.83338 82.8835 4.858 83.0076 4.90724 83.0909C4.95649 83.1723 5.01993 83.2282 5.09758 83.2585C5.17713 83.2869 5.2633 83.3011 5.35611 83.3011C5.42429 83.3011 5.48395 83.2964 5.53508 83.2869C5.58622 83.2775 5.62599 83.2699 5.6544 83.2642L5.80781 83.9659C5.75857 83.9848 5.68849 84.0038 5.59758 84.0227C5.50668 84.0436 5.39304 84.0549 5.25668 84.0568C5.03319 84.0606 4.82486 84.0208 4.63168 83.9375C4.43849 83.8542 4.28224 83.7254 4.16293 83.5511C4.04361 83.3769 3.98395 83.1581 3.98395 82.8949V78.5909ZM8.6617 84.0881C8.23178 84.0881 7.86151 83.9962 7.55091 83.8125C7.2422 83.6269 7.00356 83.3665 6.835 83.0312C6.66833 82.6941 6.585 82.2992 6.585 81.8466C6.585 81.3996 6.66833 81.0057 6.835 80.6648C7.00356 80.3239 7.23841 80.0578 7.53954 79.8665C7.84258 79.6752 8.19674 79.5795 8.60204 79.5795C8.84826 79.5795 9.08689 79.6203 9.31795 79.7017C9.54901 79.7831 9.7564 79.911 9.94011 80.0852C10.1238 80.2595 10.2687 80.4858 10.3748 80.7642C10.4808 81.0407 10.5339 81.3769 10.5339 81.7727V82.0739H7.06511V81.4375H9.70148C9.70148 81.214 9.65602 81.0161 9.56511 80.8438C9.4742 80.6695 9.34636 80.5322 9.18159 80.4318C9.01871 80.3314 8.82742 80.2812 8.60773 80.2812C8.36909 80.2812 8.16076 80.34 7.98273 80.4574C7.80659 80.5729 7.67023 80.7244 7.57364 80.9119C7.47894 81.0975 7.43159 81.2992 7.43159 81.517V82.0142C7.43159 82.3059 7.48273 82.554 7.585 82.7585C7.68917 82.9631 7.83405 83.1193 8.01966 83.2273C8.20526 83.3333 8.42212 83.3864 8.67023 83.3864C8.83121 83.3864 8.97799 83.3636 9.11057 83.3182C9.24314 83.2708 9.35773 83.2008 9.45432 83.108C9.55091 83.0152 9.62477 82.9006 9.67591 82.7642L10.4799 82.9091C10.4155 83.1458 10.3 83.3532 10.1333 83.5312C9.96852 83.7074 9.76114 83.8447 9.51114 83.9432C9.26303 84.0398 8.97989 84.0881 8.6617 84.0881ZM12.9062 84.0966C12.6297 84.0966 12.3797 84.0455 12.1562 83.9432C11.9327 83.839 11.7557 83.6884 11.625 83.4915C11.4962 83.2945 11.4318 83.053 11.4318 82.767C11.4318 82.5208 11.4791 82.3182 11.5738 82.1591C11.6685 82 11.7964 81.8741 11.9574 81.7812C12.1183 81.6884 12.2983 81.6184 12.4971 81.571C12.696 81.5237 12.8986 81.4877 13.1051 81.4631C13.3664 81.4328 13.5786 81.4081 13.7414 81.3892C13.9043 81.3684 14.0227 81.3352 14.0966 81.2898C14.1704 81.2443 14.2074 81.1705 14.2074 81.0682V81.0483C14.2074 80.8002 14.1373 80.608 13.9971 80.4716C13.8589 80.3352 13.6524 80.267 13.3778 80.267C13.0918 80.267 12.8664 80.3305 12.7017 80.4574C12.5388 80.5824 12.4261 80.7216 12.3636 80.875L11.5653 80.6932C11.66 80.428 11.7983 80.214 11.9801 80.0511C12.1638 79.8864 12.375 79.767 12.6136 79.6932C12.8522 79.6174 13.1032 79.5795 13.3664 79.5795C13.5407 79.5795 13.7253 79.6004 13.9204 79.642C14.1174 79.6818 14.3011 79.7557 14.4716 79.8636C14.6439 79.9716 14.785 80.1259 14.8949 80.3267C15.0047 80.5256 15.0596 80.7841 15.0596 81.1023V84H14.2301V83.4034H14.196C14.1411 83.5133 14.0587 83.6212 13.9488 83.7273C13.839 83.8333 13.6979 83.9214 13.5255 83.9915C13.3532 84.0616 13.1468 84.0966 12.9062 84.0966ZM13.0909 83.4148C13.3257 83.4148 13.5265 83.3684 13.6932 83.2756C13.8617 83.1828 13.9896 83.0616 14.0767 82.9119C14.1657 82.7604 14.2102 82.5985 14.2102 82.4261V81.8636C14.1799 81.8939 14.1212 81.9223 14.0341 81.9489C13.9488 81.9735 13.8513 81.9953 13.7414 82.0142C13.6316 82.0312 13.5246 82.0473 13.4204 82.0625C13.3163 82.0758 13.2291 82.0871 13.1591 82.0966C12.9943 82.1174 12.8437 82.1525 12.7074 82.2017C12.5729 82.2509 12.4649 82.322 12.3835 82.4148C12.3039 82.5057 12.2642 82.6269 12.2642 82.7784C12.2642 82.9886 12.3418 83.1477 12.4971 83.2557C12.6524 83.3617 12.8503 83.4148 13.0909 83.4148ZM16.351 84V79.6364H17.1664V80.3466H17.2203C17.3112 80.1061 17.4599 79.9186 17.6664 79.7841C17.8728 79.6477 18.12 79.5795 18.4078 79.5795C18.6995 79.5795 18.9438 79.6477 19.1408 79.7841C19.3397 79.9205 19.4864 80.108 19.5811 80.3466H19.6266C19.7308 80.1136 19.8965 79.928 20.1237 79.7898C20.351 79.6496 20.6219 79.5795 20.9362 79.5795C21.3321 79.5795 21.655 79.7036 21.905 79.9517C22.1569 80.1998 22.2828 80.5739 22.2828 81.0739V84H21.4334V81.1534C21.4334 80.858 21.3529 80.6439 21.1919 80.5114C21.0309 80.3788 20.8387 80.3125 20.6152 80.3125C20.3387 80.3125 20.1237 80.3977 19.9703 80.5682C19.8169 80.7367 19.7402 80.9536 19.7402 81.2188V84H18.8936V81.0994C18.8936 80.8627 18.8198 80.6723 18.672 80.5284C18.5243 80.3845 18.3321 80.3125 18.0953 80.3125C17.9344 80.3125 17.7857 80.3551 17.6493 80.4403C17.5148 80.5237 17.4059 80.6402 17.3226 80.7898C17.2412 80.9394 17.2005 81.1127 17.2005 81.3097V84H16.351ZM24.141 84.054C23.9857 84.054 23.8522 83.9991 23.7404 83.8892C23.6287 83.7775 23.5728 83.643 23.5728 83.4858C23.5728 83.3305 23.6287 83.1979 23.7404 83.0881C23.8522 82.9763 23.9857 82.9205 24.141 82.9205C24.2963 82.9205 24.4298 82.9763 24.5416 83.0881C24.6533 83.1979 24.7092 83.3305 24.7092 83.4858C24.7092 83.59 24.6827 83.6856 24.6296 83.7727C24.5785 83.858 24.5103 83.9261 24.4251 83.9773C24.3399 84.0284 24.2452 84.054 24.141 84.054ZM24.141 80.8778C23.9857 80.8778 23.8522 80.822 23.7404 80.7102C23.6287 80.5985 23.5728 80.465 23.5728 80.3097C23.5728 80.1544 23.6287 80.0218 23.7404 79.9119C23.8522 79.8002 23.9857 79.7443 24.141 79.7443C24.2963 79.7443 24.4298 79.8002 24.5416 79.9119C24.6533 80.0218 24.7092 80.1544 24.7092 80.3097C24.7092 80.4138 24.6827 80.5095 24.6296 80.5966C24.5785 80.6818 24.5103 80.75 24.4251 80.8011C24.3399 80.8523 24.2452 80.8778 24.141 80.8778ZM27.9079 81.208H28.5719V82.784H27.9079V81.208ZM27.8999 78.664H28.4359V78.832C28.4359 79.2533 28.3506 79.64 28.1799 79.992C28.0093 80.3387 27.7719 80.6373 27.4679 80.888C27.1639 81.1333 26.8093 81.32 26.4039 81.448L26.0919 80.936C26.4493 80.824 26.7639 80.6667 27.0359 80.464C27.3079 80.256 27.5186 80.0133 27.6679 79.736C27.8226 79.4533 27.8999 79.152 27.8999 78.832V78.664ZM28.0279 78.664H28.5719V78.832C28.5719 79.1413 28.6493 79.432 28.8039 79.704C28.9586 79.9707 29.1719 80.2053 29.4439 80.408C29.7213 80.6053 30.0386 80.7547 30.3959 80.856L30.0919 81.376C29.6866 81.2533 29.3293 81.0693 29.0199 80.824C28.7106 80.5787 28.4679 80.288 28.2919 79.952C28.1159 79.6107 28.0279 79.2373 28.0279 78.832V78.664ZM26.2679 78.328H30.2359V78.872H26.2679V78.328ZM27.9079 77.44H28.5719V78.568H27.9079V77.44ZM31.0679 77.384H31.7319V84.632H31.0679V77.384ZM25.9639 83.136L25.8759 82.584C26.3133 82.584 26.7959 82.5813 27.3239 82.576C27.8573 82.5653 28.4039 82.544 28.9639 82.512C29.5293 82.4747 30.0733 82.4133 30.5959 82.328L30.6519 82.824C30.1079 82.9253 29.5559 82.9973 28.9959 83.04C28.4413 83.0827 27.9053 83.1093 27.3879 83.12C26.8706 83.1307 26.3959 83.136 25.9639 83.136ZM38.8673 77.384H39.5073V84.624H38.8673V77.384ZM37.5313 77.544H38.1553V84.264H37.5313V77.544ZM36.5393 79.832H37.8273V80.376H36.5393V79.832ZM36.4833 81.488H37.7713V82.024H36.4833V81.488ZM33.3393 78.624H36.8993V79.168H33.3393V78.624ZM35.1073 79.656C35.406 79.656 35.6673 79.728 35.8913 79.872C36.1206 80.0107 36.2993 80.2053 36.4273 80.456C36.5606 80.7067 36.6273 80.9973 36.6273 81.328C36.6273 81.6533 36.5606 81.944 36.4273 82.2C36.2993 82.4507 36.1206 82.648 35.8913 82.792C35.6673 82.9307 35.406 83 35.1073 83C34.8193 83 34.5606 82.9307 34.3313 82.792C34.102 82.648 33.9206 82.4507 33.7873 82.2C33.6593 81.944 33.5953 81.6533 33.5953 81.328C33.5953 80.9973 33.6593 80.7067 33.7873 80.456C33.9206 80.2053 34.102 80.0107 34.3313 79.872C34.5606 79.728 34.8193 79.656 35.1073 79.656ZM35.1073 80.224C34.9313 80.224 34.774 80.272 34.6353 80.368C34.4966 80.4587 34.3846 80.5867 34.2993 80.752C34.2193 80.9173 34.1793 81.1093 34.1793 81.328C34.1793 81.5413 34.2193 81.7333 34.2993 81.904C34.3846 82.0693 34.4966 82.2 34.6353 82.296C34.774 82.3867 34.9313 82.432 35.1073 82.432C35.294 82.432 35.4566 82.3867 35.5953 82.296C35.734 82.2 35.8433 82.0693 35.9233 81.904C36.0033 81.7333 36.0433 81.5413 36.0433 81.328C36.0433 81.1093 36.0033 80.9173 35.9233 80.752C35.8433 80.5867 35.734 80.4587 35.5953 80.368C35.4566 80.272 35.294 80.224 35.1073 80.224ZM34.7953 77.576H35.4513V78.936H34.7953V77.576ZM46.1387 77.392H46.8027V82.672H46.1387V77.392ZM42.1547 83.92H47.0267V84.464H42.1547V83.92ZM42.1547 82.136H42.8187V84.104H42.1547V82.136ZM42.9227 77.896C43.2854 77.896 43.608 77.9707 43.8907 78.12C44.1734 78.2693 44.3974 78.48 44.5627 78.752C44.728 79.0187 44.8107 79.3253 44.8107 79.672C44.8107 80.0187 44.728 80.328 44.5627 80.6C44.3974 80.8667 44.1734 81.0773 43.8907 81.232C43.608 81.3813 43.2854 81.456 42.9227 81.456C42.5654 81.456 42.2427 81.3813 41.9547 81.232C41.672 81.0773 41.448 80.8667 41.2827 80.6C41.1174 80.328 41.0347 80.0187 41.0347 79.672C41.0347 79.3253 41.1174 79.0187 41.2827 78.752C41.448 78.48 41.672 78.2693 41.9547 78.12C42.2427 77.9707 42.5654 77.896 42.9227 77.896ZM42.9227 78.472C42.688 78.472 42.4774 78.5227 42.2907 78.624C42.104 78.7253 41.9547 78.8667 41.8427 79.048C41.736 79.2293 41.6827 79.4373 41.6827 79.672C41.6827 79.912 41.736 80.1227 41.8427 80.304C41.9547 80.48 42.104 80.6187 42.2907 80.72C42.4774 80.8213 42.688 80.872 42.9227 80.872C43.1574 80.872 43.368 80.8213 43.5547 80.72C43.7467 80.6187 43.896 80.48 44.0027 80.304C44.1094 80.1227 44.1627 79.912 44.1627 79.672C44.1627 79.4373 44.1094 79.2293 44.0027 79.048C43.896 78.8667 43.7467 78.7253 43.5547 78.624C43.368 78.5227 43.1574 78.472 42.9227 78.472ZM49.6702 83.2045L49.6276 83.5142C49.5992 83.7415 49.5509 83.9782 49.4827 84.2244C49.4164 84.4725 49.3473 84.7027 49.2753 84.9148C49.2052 85.1269 49.1475 85.2955 49.102 85.4205H48.4997C48.5244 85.303 48.5585 85.1439 48.602 84.9432C48.6456 84.7443 48.6882 84.5218 48.7299 84.2756C48.7715 84.0294 48.8028 83.7784 48.8236 83.5227L48.852 83.2045H49.6702ZM56.1147 77.384H56.7787V84.632H56.1147V77.384ZM52.9627 77.944C53.3201 77.944 53.6347 78.048 53.9067 78.256C54.1841 78.4587 54.4001 78.7493 54.5547 79.128C54.7147 79.5067 54.7947 79.952 54.7947 80.464C54.7947 80.976 54.7147 81.4213 54.5547 81.8C54.4001 82.1787 54.1841 82.472 53.9067 82.68C53.6347 82.888 53.3201 82.992 52.9627 82.992C52.6054 82.992 52.2881 82.888 52.0107 82.68C51.7334 82.472 51.5147 82.1787 51.3547 81.8C51.2001 81.4213 51.1227 80.976 51.1227 80.464C51.1227 79.952 51.2001 79.5067 51.3547 79.128C51.5147 78.7493 51.7334 78.4587 52.0107 78.256C52.2881 78.048 52.6054 77.944 52.9627 77.944ZM52.9627 78.536C52.7227 78.536 52.5121 78.616 52.3307 78.776C52.1547 78.9307 52.0161 79.1547 51.9147 79.448C51.8134 79.736 51.7627 80.0747 51.7627 80.464C51.7627 80.8533 51.8134 81.1947 51.9147 81.488C52.0161 81.776 52.1547 82 52.3307 82.16C52.5121 82.32 52.7227 82.4 52.9627 82.4C53.1974 82.4 53.4027 82.32 53.5787 82.16C53.7601 82 53.9014 81.776 54.0027 81.488C54.1041 81.1947 54.1547 80.8533 54.1547 80.464C54.1547 80.0747 54.1041 79.736 54.0027 79.448C53.9014 79.1547 53.7601 78.9307 53.5787 78.776C53.4027 78.616 53.1974 78.536 52.9627 78.536ZM63.6101 77.384H64.2741V84.624H63.6101V77.384ZM58.5141 83.208L58.4181 82.64C58.8768 82.64 59.3728 82.6373 59.9061 82.632C60.4395 82.6267 60.9835 82.608 61.5381 82.576C62.0928 82.544 62.6288 82.496 63.1461 82.432L63.1941 82.92C62.6555 83.0107 62.1115 83.0773 61.5621 83.12C61.0128 83.1573 60.4768 83.1813 59.9541 83.192C59.4368 83.2027 58.9568 83.208 58.5141 83.208ZM58.5701 78.36H62.9621V78.896H58.5701V78.36ZM60.7701 79.296C61.1115 79.296 61.4101 79.352 61.6661 79.464C61.9275 79.576 62.1301 79.7333 62.2741 79.936C62.4235 80.1387 62.4981 80.3787 62.4981 80.656C62.4981 80.928 62.4235 81.1653 62.2741 81.368C62.1301 81.5707 61.9275 81.7307 61.6661 81.848C61.4101 81.96 61.1115 82.016 60.7701 82.016C60.4341 82.016 60.1355 81.96 59.8741 81.848C59.6128 81.7307 59.4101 81.5707 59.2661 81.368C59.1221 81.1653 59.0501 80.928 59.0501 80.656C59.0501 80.3787 59.1221 80.1387 59.2661 79.936C59.4101 79.7333 59.6128 79.576 59.8741 79.464C60.1355 79.352 60.4341 79.296 60.7701 79.296ZM60.7701 79.816C60.5568 79.816 60.3675 79.8507 60.2021 79.92C60.0368 79.9893 59.9061 80.088 59.8101 80.216C59.7195 80.3387 59.6741 80.4853 59.6741 80.656C59.6741 80.8213 59.7195 80.968 59.8101 81.096C59.9061 81.224 60.0368 81.3227 60.2021 81.392C60.3675 81.4613 60.5568 81.496 60.7701 81.496C60.9888 81.496 61.1781 81.4613 61.3381 81.392C61.5035 81.3227 61.6315 81.224 61.7221 81.096C61.8181 80.968 61.8661 80.8213 61.8661 80.656C61.8661 80.4853 61.8181 80.3387 61.7221 80.216C61.6315 80.088 61.5035 79.9893 61.3381 79.92C61.1781 79.8507 60.9888 79.816 60.7701 79.816ZM60.4341 77.464H61.1061V78.704H60.4341V77.464ZM67.8255 78.176H68.3775V78.92C68.3775 79.3627 68.2922 79.7733 68.1215 80.152C67.9508 80.5307 67.7108 80.864 67.4015 81.152C67.0975 81.4347 66.7428 81.648 66.3375 81.792L65.9935 81.272C66.3562 81.1387 66.6735 80.9547 66.9455 80.72C67.2228 80.4853 67.4388 80.2133 67.5935 79.904C67.7482 79.5893 67.8255 79.2613 67.8255 78.92V78.176ZM67.9535 78.176H68.4975V78.92C68.4975 79.1653 68.5402 79.4027 68.6255 79.632C68.7162 79.856 68.8442 80.0667 69.0095 80.264C69.1748 80.456 69.3668 80.6267 69.5855 80.776C69.8095 80.9253 70.0548 81.0427 70.3215 81.128L69.9855 81.648C69.5855 81.5093 69.2335 81.3067 68.9295 81.04C68.6255 80.7733 68.3855 80.4587 68.2095 80.096C68.0388 79.7333 67.9535 79.3413 67.9535 78.92V78.176ZM66.1695 77.984H70.1295V78.528H66.1695V77.984ZM71.1615 77.392H71.8255V82.688H71.1615V77.392ZM67.1775 83.92H72.0495V84.464H67.1775V83.92ZM67.1775 82.192H67.8415V84.16H67.1775V82.192ZM74.693 83.2045L74.6504 83.5142C74.622 83.7415 74.5737 83.9782 74.5055 84.2244C74.4392 84.4725 74.3701 84.7027 74.2981 84.9148C74.2281 85.1269 74.1703 85.2955 74.1248 85.4205H73.5226C73.5472 85.303 73.5813 85.1439 73.6248 84.9432C73.6684 84.7443 73.711 84.5218 73.7527 84.2756C73.7943 84.0294 73.8256 83.7784 73.8464 83.5227L73.8748 83.2045H74.693ZM75.8816 83.144H82.4416V83.696H75.8816V83.144ZM78.8256 81.392H79.4896V83.328H78.8256V81.392ZM78.8096 78.304H79.3776V78.744C79.3776 79.0427 79.3216 79.3253 79.2096 79.592C79.1029 79.8533 78.9536 80.0987 78.7616 80.328C78.5749 80.552 78.3562 80.752 78.1056 80.928C77.8602 81.0987 77.5962 81.248 77.3136 81.376C77.0362 81.4987 76.7562 81.5893 76.4736 81.648L76.2016 81.12C76.4469 81.0773 76.6949 81.0053 76.9456 80.904C77.1962 80.7973 77.4309 80.6693 77.6496 80.52C77.8736 80.3707 78.0709 80.2027 78.2416 80.016C78.4176 79.8293 78.5562 79.6293 78.6576 79.416C78.7589 79.2027 78.8096 78.9787 78.8096 78.744V78.304ZM78.9376 78.304H79.4976V78.744C79.4976 78.9787 79.5482 79.2027 79.6496 79.416C79.7509 79.624 79.8896 79.8213 80.0656 80.008C80.2416 80.1947 80.4416 80.3627 80.6656 80.512C80.8896 80.656 81.1269 80.7787 81.3776 80.88C81.6336 80.9813 81.8869 81.0507 82.1376 81.088L81.8656 81.616C81.5776 81.5573 81.2922 81.4693 81.0096 81.352C80.7269 81.2293 80.4602 81.0827 80.2096 80.912C79.9642 80.736 79.7456 80.5387 79.5536 80.32C79.3616 80.096 79.2096 79.8533 79.0976 79.592C78.9909 79.3253 78.9376 79.0427 78.9376 78.744V78.304ZM76.4256 78.04H81.8816V78.592H76.4256V78.04ZM83.4009 81.192H89.9369V81.728H83.4009V81.192ZM84.2409 83.92H89.2089V84.464H84.2409V83.92ZM84.2409 82.368H84.9049V84.08H84.2409V82.368ZM86.6649 77.632C87.1823 77.632 87.6303 77.6907 88.0089 77.808C88.3929 77.92 88.6889 78.0853 88.8969 78.304C89.1049 78.5173 89.2089 78.7733 89.2089 79.072C89.2089 79.3707 89.1049 79.6293 88.8969 79.848C88.6889 80.0667 88.3929 80.2347 88.0089 80.352C87.6303 80.464 87.1823 80.52 86.6649 80.52C86.1476 80.52 85.6969 80.464 85.3129 80.352C84.9343 80.2347 84.6409 80.0667 84.4329 79.848C84.2249 79.6293 84.1209 79.3707 84.1209 79.072C84.1209 78.7733 84.2249 78.5173 84.4329 78.304C84.6409 78.0853 84.9343 77.92 85.3129 77.808C85.6969 77.6907 86.1476 77.632 86.6649 77.632ZM86.6649 78.168C86.2916 78.168 85.9636 78.2053 85.6809 78.28C85.4036 78.3493 85.1876 78.4533 85.0329 78.592C84.8783 78.7253 84.8009 78.8853 84.8009 79.072C84.8009 79.2587 84.8783 79.4213 85.0329 79.56C85.1876 79.6933 85.4036 79.7973 85.6809 79.872C85.9636 79.9413 86.2916 79.976 86.6649 79.976C87.0489 79.976 87.3796 79.9413 87.6569 79.872C87.9343 79.7973 88.1476 79.6933 88.2969 79.56C88.4516 79.4213 88.5289 79.2587 88.5289 79.072C88.5289 78.8853 88.4516 78.7253 88.2969 78.592C88.1476 78.4533 87.9343 78.3493 87.6569 78.28C87.3796 78.2053 87.0489 78.168 86.6649 78.168ZM94.2163 78.432H96.4163V78.968H94.2163V78.432ZM94.2163 80.096H96.4163V80.64H94.2163V80.096ZM92.8963 77.816C93.2483 77.816 93.563 77.8907 93.8403 78.04C94.123 78.184 94.3443 78.3867 94.5043 78.648C94.6696 78.904 94.7523 79.2 94.7523 79.536C94.7523 79.872 94.6696 80.1707 94.5043 80.432C94.3443 80.688 94.123 80.8907 93.8403 81.04C93.563 81.184 93.2483 81.256 92.8963 81.256C92.539 81.256 92.219 81.184 91.9363 81.04C91.659 80.8907 91.4376 80.688 91.2723 80.432C91.1123 80.1707 91.0323 79.872 91.0323 79.536C91.0323 79.2 91.1123 78.904 91.2723 78.648C91.4376 78.3867 91.659 78.184 91.9363 78.04C92.219 77.8907 92.539 77.816 92.8963 77.816ZM92.8963 78.384C92.6616 78.384 92.451 78.432 92.2643 78.528C92.0776 78.624 91.931 78.76 91.8243 78.936C91.7176 79.1067 91.6643 79.3067 91.6643 79.536C91.6643 79.76 91.7176 79.96 91.8243 80.136C91.931 80.3067 92.0776 80.4427 92.2643 80.544C92.451 80.64 92.6616 80.688 92.8963 80.688C93.131 80.688 93.339 80.64 93.5203 80.544C93.707 80.4427 93.8536 80.3067 93.9603 80.136C94.067 79.96 94.1203 79.76 94.1203 79.536C94.1203 79.3067 94.067 79.1067 93.9603 78.936C93.8536 78.76 93.707 78.624 93.5203 78.528C93.339 78.432 93.131 78.384 92.8963 78.384ZM96.2083 77.384H96.8723V81.664H96.2083V77.384ZM94.4883 81.84C94.9896 81.84 95.419 81.896 95.7763 82.008C96.1336 82.1147 96.4083 82.272 96.6003 82.48C96.7976 82.6827 96.8963 82.9307 96.8963 83.224C96.8963 83.512 96.7976 83.76 96.6003 83.968C96.4083 84.176 96.1336 84.3333 95.7763 84.44C95.419 84.552 94.9896 84.608 94.4883 84.608C93.9923 84.608 93.563 84.552 93.2003 84.44C92.843 84.3333 92.5656 84.176 92.3683 83.968C92.1763 83.76 92.0803 83.512 92.0803 83.224C92.0803 82.9307 92.1763 82.6827 92.3683 82.48C92.5656 82.272 92.843 82.1147 93.2003 82.008C93.563 81.896 93.9923 81.84 94.4883 81.84ZM94.4883 82.36C94.1256 82.36 93.811 82.3947 93.5443 82.464C93.283 82.5333 93.0803 82.632 92.9363 82.76C92.7976 82.888 92.7283 83.0427 92.7283 83.224C92.7283 83.4 92.7976 83.552 92.9363 83.68C93.0803 83.808 93.283 83.9067 93.5443 83.976C93.811 84.0453 94.1256 84.08 94.4883 84.08C94.8563 84.08 95.171 84.0453 95.4323 83.976C95.6936 83.9067 95.8936 83.808 96.0323 83.68C96.1763 83.552 96.2483 83.4 96.2483 83.224C96.2483 83.0427 96.1763 82.888 96.0323 82.76C95.8936 82.632 95.6936 82.5333 95.4323 82.464C95.171 82.3947 94.8563 82.36 94.4883 82.36Z" fill="#666666"/>
</svg>
