<svg width="100" height="100" viewBox="0 0 100 100" fill="none" xmlns="http://www.w3.org/2000/svg">
<rect width="100" height="100" fill="#1C4831"/>
<path d="M85.8983 61.3558C86.2 61.5961 86.4282 61.6173 86.5754 61.6173C86.6711 61.6173 86.8551 61.5607 86.9802 61.4971C88.0474 60.9531 90.0567 59.2927 91.5434 57.71C93.0963 58.4378 96.3568 60.2253 97.1002 60.9107L97.2253 61.0308C97.24 61.045 97.2621 61.045 97.2842 61.0379L97.4387 60.9531C97.792 60.7482 98.0128 60.3101 98.0128 59.8297C98.0128 59.5753 97.9098 59.3775 97.7037 59.222C96.9456 58.6709 93.8986 57.2225 92.4119 56.6714C92.4339 56.6431 92.456 56.6148 92.4707 56.5936C93.0227 55.8023 93.6631 54.5658 93.7808 54.2761C93.8691 54.0571 93.8544 53.8946 93.7072 53.7462C93.5968 53.6332 93.1994 53.3435 92.721 53.2234C92.0954 53.0608 91.7421 53.1244 91.7421 53.1244C91.7421 53.1244 91.7936 53.2869 91.8304 53.4636C91.8599 53.6473 91.8672 53.9299 91.7789 54.2267C91.3152 55.5267 89.8506 57.0953 89.5635 57.392C87.098 59.9569 85.729 60.6775 85.464 60.7977C85.442 60.8118 85.4272 60.84 85.442 60.8612C85.5082 60.939 85.6628 61.1651 85.8983 61.3558Z" fill="white"/>
<path d="M64.6133 65.9132L64.4293 65.9556C64.0981 66.0333 63.0972 66.1676 62.7807 66.1817C62.4642 66.1958 58.7033 66.2594 57.4741 66.2735V63.737C57.4815 63.306 57.5404 62.9951 57.5845 62.8043C57.6287 62.6136 57.5772 62.5358 57.3785 62.4299C57.2239 62.3451 56.8706 62.2674 56.5247 62.2391C56.1641 62.2108 55.8697 62.225 55.693 62.2462C55.5385 62.2674 55.3103 62.3309 55.3103 62.3309L55.5164 62.6489C55.6636 62.875 55.774 63.1788 55.8034 63.4261C55.8329 63.7087 55.8697 66.5844 55.8476 67.1073C55.8476 67.5524 56.7455 67.6725 57.2754 67.6725C57.5477 67.6725 58.8505 67.6584 60.2856 67.6443C62.0741 67.6301 64.0098 67.6089 64.5324 67.6089C64.9077 67.6089 65.0402 67.3687 65.0402 67.1638C65.0402 66.7611 64.9151 66.3089 64.7311 66.0545L64.6133 65.9132Z" fill="white"/>
<path d="M59.4171 57.2507C59.4171 55.2936 57.8936 53.9794 55.6341 53.9794C53.3598 53.9794 51.8363 55.2936 51.8363 57.2507C51.8363 59.1938 53.3598 60.5009 55.6341 60.5009C57.8936 60.5009 59.4171 59.1938 59.4171 57.2507ZM53.5291 57.2507C53.5291 56.1273 54.3755 55.3713 55.6341 55.3713C56.8853 55.3713 57.7243 56.1273 57.7243 57.2507C57.7243 58.3459 56.8632 59.116 55.6341 59.116C54.3902 59.116 53.5291 58.3459 53.5291 57.2507Z" fill="white"/>
<path d="M36.7999 54.3822L36.8956 54.4599L37.0207 54.4458C37.3151 54.4034 37.8451 54.4034 38.3382 54.4316C39.1846 54.4811 40.7964 54.4599 41.3558 54.3822C41.606 54.3468 41.7606 54.1843 41.7606 53.9441C41.7606 53.6756 41.7091 53.3789 41.6134 53.1316L41.5324 52.9196L41.2969 52.962C40.2591 53.1386 38.0364 53.075 36.6233 52.8207L36.2553 52.7571L36.2921 53.1104C36.3142 53.3789 36.5056 54.149 36.7999 54.3822Z" fill="white"/>
<path d="M47.148 65.9132L46.964 65.9556C46.6328 66.0333 45.6319 66.1676 45.3154 66.1817C44.9989 66.1958 41.238 66.2594 40.0089 66.2735V63.737C40.0162 63.306 40.0751 62.9951 40.1193 62.8043C40.1634 62.6136 40.1119 62.5358 39.9132 62.4299C39.7586 62.3451 39.4053 62.2674 39.0594 62.2391C38.6988 62.2108 38.4044 62.225 38.2278 62.2462C38.0732 62.2674 37.845 62.3309 37.845 62.3309L38.0511 62.6489C38.1983 62.875 38.3087 63.1788 38.3382 63.4261C38.3676 63.7087 38.4044 66.5844 38.3823 67.1073C38.3823 67.5524 39.2802 67.6725 39.8101 67.6725C40.0825 67.6725 41.3852 67.6584 42.8204 67.6443C44.6089 67.6301 46.5445 67.6089 47.0671 67.6089C47.4424 67.6089 47.5749 67.3687 47.5749 67.1638C47.5749 66.7611 47.4498 66.3089 47.2658 66.0545L47.148 65.9132Z" fill="white"/>
<path d="M29.8006 65.9132L29.6166 65.9556C29.2854 66.0333 28.2844 66.1676 27.9679 66.1817C27.6515 66.1958 23.8905 66.2594 22.6614 66.2735V63.737C22.6688 63.306 22.7276 62.9951 22.7718 62.8043C22.816 62.6136 22.7644 62.5358 22.5657 62.4299C22.4112 62.3451 22.0579 62.2674 21.712 62.2391C21.3513 62.2108 21.0569 62.225 20.8803 62.2462C20.7257 62.2674 20.4976 62.3309 20.4976 62.3309L20.7036 62.6489C20.8508 62.875 20.9612 63.1788 20.9907 63.4261C21.0201 63.7087 21.0569 66.5844 21.0348 67.1073C21.0348 67.5524 21.9328 67.6725 22.4627 67.6725C22.735 67.6725 24.0377 67.6584 25.4729 67.6443C27.2614 67.6301 29.1971 67.6089 29.7196 67.6089C30.095 67.6089 30.2274 67.3687 30.2274 67.1638C30.2274 66.7611 30.1023 66.3089 29.9183 66.0545L29.8006 65.9132Z" fill="white"/>
<path d="M70.9281 54.1914C71.1195 54.3751 71.2961 54.3822 71.4433 54.3539C72.3559 54.2126 76.6468 54.0642 78.2366 54.043C78.185 55.1594 77.9863 56.9187 77.7802 57.7949L77.714 58.0633C77.714 58.0633 78.185 58.1481 78.3911 58.1764C78.715 58.2188 79.1492 58.2259 79.267 57.8655C79.3847 57.5052 79.8558 55.2371 79.9514 53.8735C79.9588 53.8169 80.0324 53.6403 80.0545 53.5908C80.1428 53.4213 80.1207 53.2305 79.9882 53.1033C79.8705 52.9903 79.4068 52.6723 79.1418 52.6087L79.0682 52.5875L78.9946 52.6087C78.899 52.637 78.531 52.6935 78.4132 52.6935L72.6724 52.7571C72.0395 52.7712 71.1268 52.743 70.6852 52.6935L70.3246 52.6582L70.3761 53.0044C70.4203 53.393 70.6779 53.93 70.9281 54.1914Z" fill="white"/>
<path d="M25.1932 53.2939C25.046 53.2303 24.7958 53.1667 24.5308 53.1243C24.2438 53.0819 23.9346 53.0678 23.7212 53.0749C23.4562 53.089 23.287 53.1455 23.287 53.1455C23.287 53.1455 23.3974 53.3151 23.471 53.4705C23.5446 53.633 23.677 53.9086 23.7138 54.2619C23.7506 54.601 23.758 56.0424 23.758 56.0424V56.1272H19.4966C19.4966 55.9647 19.4966 55.569 19.5039 55.2369C19.5186 54.813 19.5334 54.3679 19.5554 53.8874C19.5702 53.6401 19.5775 53.5553 19.3199 53.4493C19.1727 53.3857 18.9225 53.3221 18.6575 53.2798C18.3705 53.2374 18.0614 53.2232 17.8479 53.2303C17.583 53.2444 17.4137 53.301 17.4137 53.301C17.4137 53.301 17.5241 53.4705 17.5977 53.626C17.6713 53.7885 17.8038 54.064 17.8406 54.4173C17.8774 54.7565 17.8847 56.1978 17.8847 56.1978V57.8724V61.5818C17.8847 61.6101 17.9068 61.6313 17.9363 61.6242C18.0467 61.6171 18.3263 61.5959 18.6943 61.5323C19.055 61.4688 19.4818 61.3698 19.4966 60.9247C20.9097 60.96 22.3302 60.96 23.758 60.9247V61.5818C23.758 61.6101 23.7801 61.6313 23.8095 61.6242C23.9199 61.6171 24.1996 61.5959 24.5676 61.5323C24.9356 61.4688 25.3698 61.3698 25.3698 60.9106C25.3698 60.7127 25.3698 59.4551 25.3698 59.4551V56.0424C25.3698 56.0424 25.3625 55.5054 25.3772 55.0815C25.3919 54.6575 25.4066 54.2124 25.4287 53.732C25.4434 53.4847 25.4582 53.3999 25.1932 53.2939ZM19.4966 59.6176V57.4414C20.9097 57.4767 22.3302 57.4767 23.758 57.4414V57.7169V59.6176H19.4966Z" fill="white"/>
<path d="M14.1385 51.8455C14.1091 51.7608 14.0355 51.7042 13.9472 51.6548C13.7632 51.5629 13.3952 51.4357 13.0272 51.3933C12.7328 51.351 12.3648 51.358 12.2617 51.3651C12.0041 51.3863 11.8569 51.4287 11.8569 51.4287C11.8569 51.4287 11.9379 51.5347 12.063 51.7678C12.1955 51.9939 12.3501 52.4461 12.3501 52.7853C12.3501 53.4565 12.3721 54.6223 12.3721 56.099V59.971C12.3721 59.9992 12.3942 60.0204 12.4237 60.0134C12.5414 60.0063 12.8358 59.9851 13.2112 59.9215C13.5792 59.8579 14.0134 59.759 14.0134 59.2997C14.0134 59.1019 14.0134 57.8442 14.0134 57.8442V56.1061L14.0208 53.0326C14.0208 52.7923 14.0428 52.3896 14.1017 52.1776C14.1532 52.0222 14.1606 51.9233 14.1385 51.8455Z" fill="white"/>
<path d="M9.46493 59.3139C8.93501 58.8617 7.05822 57.7171 5.99102 57.1448C6.3075 56.636 6.52094 56.2333 6.61662 55.9083C6.62398 55.88 6.63134 55.8518 6.6387 55.8306C6.66078 55.7528 6.66814 55.6822 6.6755 55.6115C6.6755 55.5833 6.6755 55.555 6.6755 55.5267C6.6755 55.4914 6.66814 55.4632 6.66078 55.4208C6.64606 55.3501 6.61662 55.2653 6.57982 55.1805C6.6755 55.1805 6.76382 55.1735 6.85214 55.1735C6.8595 55.1735 6.8595 55.1735 6.86686 55.1735C6.99198 55.1735 7.10974 55.1664 7.21278 55.1664C7.2275 55.1664 7.23486 55.1664 7.24958 55.1664C7.2643 55.1664 7.27902 55.1664 7.29374 55.1664C7.30846 55.1664 7.31582 55.1664 7.33054 55.1664C7.38206 55.1664 7.42622 55.1664 7.47038 55.1664C7.47774 55.1664 7.47774 55.1664 7.4851 55.1664C7.50718 55.1664 7.52926 55.1664 7.55134 55.1664C7.57342 55.1664 7.58814 55.1664 7.61022 55.1664C7.61022 55.1664 7.61022 55.1664 7.61758 55.1664C7.6323 55.1664 7.64702 55.1664 7.66174 55.1664C7.6691 55.1664 7.6691 55.1664 7.67646 55.1664C7.72798 55.1664 7.77214 55.1664 7.80158 55.1664L9.16317 55.1805C9.53853 55.1805 9.67101 54.9403 9.67101 54.7354C9.67101 54.3821 9.54589 53.9864 9.35453 53.7321L9.23677 53.5696L9.04541 53.6261C8.84669 53.6897 8.33149 53.7321 7.51454 53.7674C6.6755 53.8027 3.78303 53.831 3.31935 53.831C2.70111 53.831 1.82527 53.8169 1.40576 53.7674L1.05984 53.7321L1.09664 54.0642C1.13344 54.4174 1.31008 54.8555 1.5456 55.1735C1.56767 55.2017 1.59712 55.23 1.6192 55.2512C1.78847 55.4066 1.97247 55.3784 2.08287 55.3572C2.32575 55.3148 3.13535 55.2512 3.62847 55.2371L4.87966 55.2088H4.95326C4.9459 55.3642 4.91646 55.5055 4.88702 55.5903C4.39391 57.2225 2.03871 59.6177 0.360639 60.4373L0.242879 60.4938L0.0294399 60.5786C0.00735995 60.5857 0 60.6069 0 60.6281C0 60.6352 0.00735997 60.6422 0.00735997 60.6493C0.0515198 60.7058 0.12512 60.8047 0.235519 60.9178L0.242879 60.9248C0.272319 60.9602 0.309119 60.9884 0.345919 61.0238C0.382719 61.0591 0.419519 61.0944 0.463679 61.1297C0.897917 61.4901 1.20704 61.4336 1.48672 61.3064C2.43615 60.8754 4.21727 59.3704 5.19614 58.2329C6.2707 58.9394 8.02973 60.2324 8.70685 60.8825C8.75101 60.9248 8.79517 60.9672 8.82461 61.0026L8.97181 61.158C8.97917 61.1651 8.98653 61.1721 9.00125 61.1721C9.00861 61.1721 9.01597 61.1721 9.01597 61.1721C9.02333 61.1721 9.03069 61.1651 9.03069 61.1651L9.19997 61.0379C9.45757 60.8471 9.71517 60.4303 9.71517 59.9286C9.72253 59.6884 9.64157 59.4764 9.46493 59.3139Z" fill="white"/>
<path d="M13.7337 61.1651C13.5865 61.1015 13.3363 61.0379 13.0713 60.9955C12.7843 60.9531 12.4752 60.939 12.2617 60.9461C11.9968 60.9602 11.8275 61.0167 11.8275 61.0167C11.8275 61.0167 11.9379 61.1863 12.0115 61.3417C12.0851 61.5042 12.2102 61.7798 12.2544 62.1331C12.2838 62.3663 12.2912 63.0092 12.2985 63.3837H6.93311C6.93311 63.306 6.93311 63.2283 6.94047 63.1505C6.95519 62.7266 6.94783 62.5288 6.96991 62.0483C6.98463 61.801 6.99199 61.7162 6.73439 61.6102C6.5872 61.5466 6.33696 61.4831 6.072 61.4407C5.77024 61.3912 5.46112 61.3771 5.25504 61.3912C4.99008 61.4053 4.8208 61.4619 4.8208 61.4619C4.8208 61.4619 4.9312 61.6314 5.0048 61.7869C5.0784 61.9494 5.20352 62.2249 5.24768 62.5782C5.28448 62.9174 5.29184 64.1114 5.29184 64.1114V64.4082V68.2801C5.29184 68.3084 5.31392 68.3296 5.34336 68.3225C5.46112 68.3155 5.75552 68.2943 6.13088 68.2307C6.49152 68.1671 6.92575 68.0682 6.93311 67.616C8.70687 67.6725 10.5027 67.6725 12.3059 67.616V68.2801C12.3059 68.3084 12.328 68.3296 12.3574 68.3225C12.4752 68.3155 12.7696 68.2943 13.1449 68.2307C13.5129 68.1671 13.9472 68.0682 13.9472 67.6089C13.9472 67.4111 13.9472 66.1534 13.9472 66.1534V64.4153V63.9701V62.9386C13.9472 62.8608 13.9472 62.7831 13.9545 62.7054C13.9693 62.2815 13.9619 62.0836 13.984 61.6032C13.984 61.3559 13.9987 61.2711 13.7337 61.1651ZM6.92575 66.3159C6.92575 66.217 6.92575 66.1534 6.92575 66.1534V64.6838C8.69951 64.7403 10.4953 64.7403 12.2985 64.6838V66.323H6.92575V66.3159Z" fill="white"/>
<path d="M32.5459 57.3285C32.0822 57.5829 30.9561 57.5829 30.647 57.5829C30.3599 57.5829 29.9331 57.5829 29.6313 57.5829V56.0921L29.6387 53.0185C29.6387 52.7783 29.6607 52.3756 29.7196 52.1636C29.7638 52.0152 29.7711 51.9163 29.7491 51.8386C29.7196 51.7538 29.646 51.6973 29.5577 51.6478C29.3737 51.556 29.0057 51.4288 28.6377 51.3864C28.3433 51.344 27.9753 51.3511 27.8723 51.3581C27.6147 51.3793 27.4675 51.4217 27.4675 51.4217C27.4675 51.4217 27.5484 51.5277 27.6735 51.7609C27.806 51.987 27.9606 52.4392 27.9606 52.7783C27.9606 53.4495 27.9827 54.6154 27.9827 56.0921V59.4058V63.2778C27.9827 63.306 28.0047 63.3272 28.0342 63.3201C28.1519 63.3131 28.4463 63.2919 28.8217 63.2283C29.1897 63.1647 29.6239 63.0658 29.6239 62.6065C29.6239 62.4087 29.6239 61.151 29.6239 61.151V59.4129V58.9748C30.1171 58.9748 30.9782 58.9748 31.383 58.9748C31.9718 58.9748 32.0527 58.9889 32.1999 58.996C32.3471 59.0031 32.8108 59.0596 32.8476 58.5791C32.8918 57.9644 32.5459 57.3285 32.5459 57.3285Z" fill="white"/>
<path d="M49.989 57.6606C49.5253 57.915 48.3992 57.915 48.0901 57.915C47.8031 57.915 47.3762 57.915 47.0744 57.915V56.0921L47.0818 53.0185C47.0818 52.7783 47.1039 52.3756 47.1627 52.1636C47.2069 52.0152 47.2143 51.9163 47.1922 51.8386C47.1627 51.7538 47.0891 51.6973 47.0008 51.6478C46.8168 51.556 46.4488 51.4288 46.0808 51.3864C45.7864 51.344 45.4184 51.3511 45.3154 51.3581C45.0578 51.3793 44.9106 51.4217 44.9106 51.4217C44.9106 51.4217 44.9915 51.5277 45.1167 51.7609C45.2418 51.994 45.4037 52.4392 45.4037 52.7783C45.4037 53.4495 45.4258 54.6154 45.4258 56.0921V59.7944V63.6664C45.4258 63.6946 45.4479 63.7158 45.4773 63.7088C45.5951 63.7017 45.8895 63.6805 46.2648 63.6169C46.6328 63.5533 47.0671 63.4544 47.0671 62.9951C47.0671 62.7973 47.0671 61.5396 47.0671 61.5396V59.8015V59.314C47.5602 59.314 48.4213 59.314 48.8261 59.314C49.4149 59.314 49.4958 59.3281 49.643 59.3352C49.7902 59.3422 50.2539 59.3988 50.2907 58.9183C50.3349 58.2965 49.989 57.6606 49.989 57.6606Z" fill="white"/>
<path d="M64.7972 51.8455C64.7678 51.7608 64.6942 51.7042 64.6059 51.6548C64.4219 51.5629 64.0539 51.4357 63.6859 51.3933C63.3915 51.351 63.0235 51.358 62.9205 51.3651C62.6629 51.3792 62.5157 51.4287 62.5157 51.4287C62.5157 51.4287 62.5966 51.5347 62.7217 51.7678C62.8469 52.001 63.0088 52.4461 63.0088 52.7853C63.0088 53.2869 63.0235 54.0641 63.0309 55.0392C62.5083 55.0533 61.8238 55.0604 61.4485 55.0604C61.1025 55.0604 60.5358 55.0604 60.2709 55.0321L59.9544 54.9968C59.9544 54.9968 59.947 55.1452 59.9544 55.3006C59.9765 55.7387 60.2488 56.5088 60.7272 56.5088C61.1688 56.4523 62.2507 56.3887 63.0309 56.3604V58.6285C62.5083 58.6426 61.8165 58.6497 61.4485 58.6497C61.1025 58.6497 60.5358 58.6497 60.2709 58.6214L59.9544 58.5861C59.9544 58.5861 59.947 58.7345 59.9544 58.8899C59.9765 59.328 60.2488 60.0981 60.7272 60.0981C61.1688 60.0416 62.2507 59.978 63.0309 59.9498V63.6663C63.0309 63.6945 63.0529 63.7157 63.0824 63.7086C63.2001 63.7016 63.4945 63.6804 63.8699 63.6168C64.2379 63.5532 64.6721 63.4543 64.6721 62.995C64.6721 62.7972 64.6721 61.5395 64.6721 61.5395V59.8014V56.099L64.6795 53.0255C64.6795 52.7853 64.7016 52.3825 64.7605 52.1706C64.812 52.0222 64.8193 51.9233 64.7972 51.8455Z" fill="white"/>
<path d="M99.5953 64.0054L99.4849 63.85L99.2935 63.8994C98.9697 63.9842 97.9687 64.0973 97.0634 64.1255C96.2097 64.1538 94.2298 64.1679 92.6106 64.182V63.8288V61.6738C92.6106 61.4971 92.6327 61.3417 92.6622 61.2216C92.7063 61.0591 92.6842 60.9107 92.434 60.7906C92.3162 60.734 91.9409 60.621 91.5361 60.5786C91.0062 60.5221 90.6087 60.6422 90.6087 60.6422L90.778 60.9672C90.8663 61.1368 90.9326 61.377 90.9473 61.6031C90.9546 61.7444 90.9694 62.6771 90.9767 63.3271C90.9841 63.638 90.9841 63.9418 90.9914 64.1962V64.2032C89.2913 64.2103 87.2011 64.2103 86.5681 64.2103C85.4862 64.2103 84.5809 64.175 83.9479 64.1043L83.6315 64.069C83.6315 64.069 83.6315 64.2386 83.683 64.4505C83.7566 64.7614 84.154 65.8213 84.6324 65.8213C85.1403 65.7577 86.0823 65.6941 86.9803 65.6658C87.7531 65.6376 89.571 65.6234 90.9399 65.6093L92.6033 65.5881C94.4874 65.574 97.7626 65.5952 98.4839 65.6234L99.4922 65.6517C99.8013 65.6517 100 65.4609 100 65.1642C100 64.8109 99.7866 64.2739 99.5953 64.0054Z" fill="white"/>
<path d="M83.0426 58.9112L82.9322 58.7557L82.7409 58.8052C82.4171 58.89 81.4161 59.003 80.5108 59.0313C79.6423 59.0596 77.6183 59.0737 75.9844 59.0878L75.5576 59.0949C73.8059 59.109 70.803 59.109 70.0155 59.109C68.9336 59.109 68.0283 59.0737 67.3953 59.003L67.0789 58.9677C67.0789 58.9677 67.0789 59.1373 67.1304 59.3492C67.204 59.6601 67.6014 60.72 68.0798 60.72C68.5877 60.6564 69.5297 60.5928 70.4276 60.5645C71.2004 60.5363 73.0184 60.5221 74.3873 60.508H74.4168V67.5806C74.4168 67.6089 74.4388 67.6301 74.4683 67.623C74.586 67.616 74.8804 67.5948 75.2558 67.5312C75.6238 67.4676 76.058 67.3687 76.058 66.9094C76.058 66.7116 76.058 60.4868 76.058 60.4868C77.9422 60.4727 81.2174 60.4939 81.9313 60.5221L82.9396 60.5504C83.2487 60.5504 83.4474 60.3596 83.4474 60.0629C83.4548 59.7167 83.2414 59.1797 83.0426 58.9112Z" fill="white"/>
<path d="M43.1221 60.5363C42.6217 60.1618 40.7596 59.1585 39.6998 58.671C39.7145 58.6498 39.7218 58.6427 39.7218 58.6427C39.9721 58.2682 40.1487 57.9361 40.2518 57.6323L40.2665 57.5475C40.2665 57.4133 40.2076 57.1165 40.1266 56.954C40.7522 56.9399 41.2674 56.9328 41.4367 56.9328L42.7321 56.947C43.1074 56.947 43.2399 56.7067 43.2399 56.5018C43.2399 56.1839 43.1148 55.7882 42.9308 55.5338L42.813 55.3713L42.6143 55.4279C42.4082 55.4915 41.9225 55.5409 41.1791 55.5692C40.3989 55.5974 37.374 55.6328 36.903 55.6328C36.2553 55.6328 35.4162 55.6116 35.0188 55.5692L34.6729 55.5338L34.7097 55.8659C34.7465 56.198 34.9231 56.6219 35.1586 56.9399C35.35 57.1872 35.5708 57.1448 35.6959 57.1236C35.9609 57.0812 36.7852 57.0176 37.2194 57.0035L38.4854 56.9752H38.5222C38.5148 57.1307 38.4854 57.4062 38.4412 57.491C38.0511 58.5014 35.35 60.9885 34.062 61.5113L33.6646 61.6738C33.6351 61.688 33.6278 61.7162 33.6425 61.7445C33.7087 61.8293 33.8633 62.0271 34.0915 62.2249C34.2902 62.4016 34.5698 62.5288 34.8127 62.5288C34.9599 62.5288 35.0924 62.4793 35.1586 62.451C36.1228 62.0836 37.7199 60.8684 38.8386 59.6813C39.9647 60.3172 41.9813 61.6032 42.526 62.126L42.6732 62.2673C42.6879 62.2815 42.7173 62.2885 42.7394 62.2673L42.9013 62.1402C43.1369 61.9494 43.3797 61.5325 43.3797 61.0803C43.3945 60.8542 43.2914 60.6564 43.1221 60.5363Z" fill="white"/>
<path d="M36.6012 44.9567C36.5939 44.9567 36.5939 44.9637 36.5865 44.9637C36.5497 45.0203 36.4246 45.2181 36.3216 45.4937C36.2185 45.7763 36.1596 46.1084 36.1596 46.391C36.1596 46.4051 36.167 46.4122 36.1817 46.4122H41.0172H58.9756H63.8111C63.8258 46.4122 63.8332 46.4051 63.8332 46.391C63.8332 46.1154 63.7743 45.7763 63.6712 45.4937C63.5756 45.2181 63.4431 45.0203 63.4063 44.9637C63.4063 44.9637 63.3989 44.9567 63.3916 44.9567C63.1634 44.9637 61.9564 45.0061 60.6978 45.0273L60.0575 45.0344V38.527H63.7301C63.8626 38.527 64.2159 38.2514 64.525 37.7427C64.6722 37.5025 64.7605 37.2905 64.7826 37.2269C64.7826 37.2199 64.7826 37.2128 64.7826 37.2128C64.7826 37.2057 64.7752 37.2057 64.7679 37.2057C63.789 36.9443 62.1477 35.8915 61.0511 34.8105C60.2415 34.0121 59.7852 33.3974 59.5202 32.7474C59.2405 32.0549 59.2258 31.3696 59.2552 31.0022C58.8431 30.988 58.35 31.0445 57.9746 31.1364C57.798 31.1788 57.6434 31.2212 57.614 31.4261L57.5993 31.4826H57.5404C57.5257 31.4826 56.1935 31.5321 54.8098 31.5533L54.2431 31.5603H45.7644L45.1977 31.5533C43.814 31.5321 42.4745 31.4826 42.4671 31.4826H42.4083L42.3935 31.4261C42.3641 31.2141 42.2095 31.1788 42.0329 31.1364C41.6575 31.0445 41.1644 30.9951 40.7523 31.0022C40.7743 31.3696 40.767 32.0549 40.4873 32.7474C40.2223 33.3974 39.766 34.0192 38.9564 34.8105C37.8598 35.8915 36.2259 36.9443 35.2249 37.2057C35.2176 37.2057 35.2176 37.2128 35.2102 37.2128C35.2102 37.2128 35.2102 37.2199 35.2102 37.2269C35.2396 37.3047 35.328 37.5096 35.4678 37.7427C35.7769 38.2585 36.1302 38.527 36.2627 38.527H39.9353V45.0344L39.295 45.0273C38.0364 45.0132 36.8294 44.9708 36.6012 44.9567ZM58.4824 45.0768H53.8898V38.5341H58.4824V45.0768ZM52.3001 45.0768H47.7074V38.5341H52.3001V45.0768ZM46.1177 45.0768H41.5251V38.5341H46.1177V45.0768ZM61.7797 37.2199H38.2278L38.3824 37.0997C38.4339 37.0574 38.4928 37.015 38.5516 36.9655C39.0889 36.5486 39.9868 35.8421 40.767 34.9942C41.606 34.0757 42.0623 33.2207 42.1433 32.9523L42.158 32.9028H57.8348L57.8495 32.9523C57.9378 33.2207 58.3868 34.0827 59.2258 34.9942C60.006 35.8491 60.9039 36.5486 61.4412 36.9655C61.5074 37.015 61.5589 37.0574 61.6104 37.0997L61.7797 37.2199Z" fill="white"/>
</svg>
