<svg width="100" height="100" viewBox="0 0 100 100" fill="none" xmlns="http://www.w3.org/2000/svg">
<path d="M10.872 35.8V34.072H21.72C29.112 34.072 32.952 34.088 33.24 34.12C35.448 34.248 37.4 34.744 39.096 35.608C40.76 36.472 42.008 37.688 42.84 39.256C43.128 39.832 43.336 40.456 43.464 41.128C43.624 41.928 43.64 42.792 43.512 43.72C43.16 45.16 42.424 46.392 41.304 47.416C40.056 48.44 38.568 49.176 36.84 49.624L36.312 49.768L36.648 49.816C39.688 50.328 41.928 51.432 43.368 53.128C44.168 54.12 44.712 55.24 45 56.488C45.064 56.776 45.096 57.24 45.096 57.88C45.128 59.224 44.808 60.536 44.136 61.816C42.76 64.44 40.264 66.072 36.648 66.712C36.424 66.744 36.184 66.776 35.928 66.808C35.064 66.936 30.568 67 22.44 67H10.872V65.272V63.544H13.464H16.056V50.536V37.528H13.464H10.872V35.8ZM32.712 37.672L32.376 37.576L27.96 37.528H23.544V42.952V48.424H27C29.4 48.424 30.696 48.408 30.888 48.376C33.32 48.088 34.824 46.744 35.4 44.344C35.4 44.248 35.416 44.152 35.448 44.056C35.64 43.256 35.672 42.44 35.544 41.608C35.288 39.496 34.344 38.184 32.712 37.672ZM33.528 51.496L33.192 51.352H28.344H23.544V57.448V63.544H27.816C31.016 63.544 32.888 63.464 33.432 63.304C35.544 62.632 36.68 60.984 36.84 58.36C36.872 57.976 36.872 57.576 36.84 57.16C36.744 56.008 36.552 55.048 36.264 54.28C35.688 52.872 34.776 51.944 33.528 51.496ZM50.1533 35.8V34.072H60.0893C66.8093 34.104 70.7293 34.184 71.8493 34.312C75.1133 34.76 77.7373 35.768 79.7213 37.336C81.2253 38.616 82.1853 40.184 82.6013 42.04C82.7293 42.744 82.7293 43.56 82.6013 44.488C82.3453 45.48 81.9453 46.36 81.4013 47.128C80.6973 48.12 79.8013 48.936 78.7133 49.576C78.1373 49.896 77.3693 50.264 76.4093 50.68L75.9293 50.872L76.3133 51.064C77.4013 51.768 78.2173 52.52 78.7613 53.32C79.2093 53.896 79.5133 54.456 79.6733 55C79.8973 55.48 80.1213 56.68 80.3453 58.6C80.6013 60.552 80.7933 61.704 80.9213 62.056C81.4333 63.72 82.4893 64.552 84.0893 64.552C84.4413 64.552 84.6973 64.52 84.8573 64.456C85.4973 63.912 85.8813 63.192 86.0093 62.296C86.0093 61.944 86.1693 61.656 86.4893 61.432C86.7133 61.336 87.4173 61.32 88.6013 61.384C88.8253 61.384 88.9533 61.4 88.9853 61.432C89.2093 61.56 89.3533 61.752 89.4173 62.008C89.5453 62.296 89.5133 62.792 89.3213 63.496C88.8093 65.384 87.6733 66.632 85.9133 67.24C85.5933 67.336 85.2733 67.416 84.9533 67.48C83.9613 67.64 82.2813 67.608 79.9133 67.384C75.5293 66.936 72.9853 65.336 72.2812 62.584C72.2173 62.392 72.1693 62.184 72.1373 61.96C72.1053 61.736 72.0893 60.728 72.0893 58.936C72.0893 56.984 72.0093 55.736 71.8493 55.192C71.4013 53.784 70.5693 52.808 69.3533 52.264C68.9053 52.072 67.8333 51.976 66.1373 51.976H65.6093H63.0653V57.736V63.544H65.6573H68.2493V65.272V67H67.6253C67.6573 67 66.1533 66.968 63.1133 66.904C60.5213 66.872 57.9133 66.872 55.2893 66.904C52.2493 66.968 50.7453 67 50.7773 67H50.1533V65.272V63.544H52.7453H55.3372V50.536V37.528H52.7453H50.1533V35.8ZM69.0173 37.576C68.7613 37.544 67.6413 37.528 65.6573 37.528H63.0653V43.288V49.048H66.1373C68.4413 49.016 69.9453 48.92 70.6493 48.76C71.4173 48.6 72.1533 48.296 72.8573 47.848C73.4653 47.368 73.8653 46.616 74.0573 45.592C74.2173 44.504 74.2333 43.192 74.1053 41.656C74.0093 40.184 73.5453 39.16 72.7133 38.584C72.5533 38.488 72.3773 38.392 72.1853 38.296C71.2893 37.912 70.2333 37.672 69.0173 37.576Z" fill="black"/>
</svg>
